<?xml version="1.0" encoding="UTF-8"?>
<svg xmlns="http://www.w3.org/2000/svg" xmlns:xlink="http://www.w3.org/1999/xlink" width="30px" height="30px" viewBox="0 0 30 30" version="1.1">
<g id="surface234218">
<path style=" stroke:none;fill-rule:nonzero;fill:rgb(76.078431%,90.980392%,100%);fill-opacity:1;" d="M 0.9375 13.6875 L 29.0625 13.6875 L 29.0625 16.3125 L 0.9375 16.3125 Z M 0.9375 13.6875 "/>
<path style=" stroke:none;fill-rule:nonzero;fill:rgb(45.490196%,58.823529%,76.862745%);fill-opacity:1;" d="M 28.875 13.875 L 28.875 16.125 L 1.125 16.125 L 1.125 13.875 L 28.875 13.875 M 29.25 13.5 L 0.75 13.5 L 0.75 16.5 L 29.25 16.5 Z M 29.25 13.5 "/>
<path style=" stroke:none;fill-rule:nonzero;fill:rgb(76.078431%,90.980392%,100%);fill-opacity:1;" d="M 0.9375 6.1875 L 29.0625 6.1875 L 29.0625 8.8125 L 0.9375 8.8125 Z M 0.9375 6.1875 "/>
<path style=" stroke:none;fill-rule:nonzero;fill:rgb(45.490196%,58.823529%,76.862745%);fill-opacity:1;" d="M 28.875 6.375 L 28.875 8.625 L 1.125 8.625 L 1.125 6.375 L 28.875 6.375 M 29.25 6 L 0.75 6 L 0.75 9 L 29.25 9 Z M 29.25 6 "/>
<path style=" stroke:none;fill-rule:nonzero;fill:rgb(76.078431%,90.980392%,100%);fill-opacity:1;" d="M 0.9375 21.1875 L 29.0625 21.1875 L 29.0625 23.8125 L 0.9375 23.8125 Z M 0.9375 21.1875 "/>
<path style=" stroke:none;fill-rule:nonzero;fill:rgb(45.490196%,58.823529%,76.862745%);fill-opacity:1;" d="M 28.875 21.375 L 28.875 23.625 L 1.125 23.625 L 1.125 21.375 L 28.875 21.375 M 29.25 21 L 0.75 21 L 0.75 24 L 29.25 24 Z M 29.25 21 "/>
</g>
</svg>
